<?xml version="1.0" encoding="utf-8"?>
<!-- Generator: Adobe Illustrator 16.0.0, SVG Export Plug-In . SVG Version: 6.00 Build 0)  -->
<!DOCTYPE svg PUBLIC "-//W3C//DTD SVG 1.1//EN" "http://www.w3.org/Graphics/SVG/1.1/DTD/svg11.dtd">
<svg version="1.1"
	 id="svg2" xmlns:svg="http://www.w3.org/2000/svg" xmlns:rdf="http://www.w3.org/1999/02/22-rdf-syntax-ns#" xmlns:cc="http://creativecommons.org/ns#" xmlns:dc="http://purl.org/dc/elements/1.1/"
	 xmlns="http://www.w3.org/2000/svg" xmlns:xlink="http://www.w3.org/1999/xlink" x="0px" y="0px" width="268.834px"
	 height="268.879px" viewBox="-22.167 0 268.834 268.879" enable-background="new -22.167 0 268.834 268.879" xml:space="preserve">
<g id="g10" transform="matrix(1.3333333,0,0,-1.3333333,0,268.88)">
	<g id="g12" transform="scale(0.1)">
		<g id="g14">
			<g>
				<g>
					<defs>
						<path id="SVGID_1_" d="M1102.365,706.473L930.04,606.995c-10.005-5.918-21.226-8.789-32.446-8.789
							c-11.235,0-22.456,2.256-32.556,8.071L656.69,726.161c-45,28.154-89.366,67.148-115.895,113.159
							c-28.572,49.38-50.793,105.718-50.793,162.847v663.633l23.243,11.521l-3.812,0.11L690,1783.851v-812.3
							c0-23.262,24.36-45.396,44.462-57.027L1102.365,706.473z"/>
					</defs>
					<clipPath id="SVGID_2_">
						<use xlink:href="#SVGID_1_"  overflow="visible"/>
					</clipPath>
					<g id="g16" clip-path="url(#SVGID_2_)">
						
							<linearGradient id="path28_1_" gradientUnits="userSpaceOnUse" x1="9816.6914" y1="-16312.1572" x2="9817.6914" y2="-16312.1572" gradientTransform="matrix(10.8866 0 0 -10.8866 -106380.3672 -176392.9062)">
							<stop  offset="0" style="stop-color:#CAA118"/>
							<stop  offset="1" style="stop-color:#CEA219"/>
						</linearGradient>
						<path id="path28" fill="url(#path28_1_)" d="M1102.365,706.473L930.04,606.995c-10.005-5.918-21.226-8.789-32.446-8.789
							c-11.235,0-22.456,2.256-32.556,8.071L656.69,726.161c-45,28.154-89.366,67.148-115.895,113.159
							c-28.572,49.38-50.793,105.718-50.793,162.847v663.633l23.243,11.521l-3.812,0.11L690,1783.851v-812.3
							c0-23.262,24.36-45.396,44.462-57.027L1102.365,706.473"/>
					</g>
				</g>
			</g>
		</g>
		<g id="g30">
			<g>
				<g>
					<defs>
						<path id="SVGID_3_" d="M1311.852,1121.442l-172.244-99.58c-10.1-5.823-21.218-8.683-32.439-8.683
							c-11.331,0-22.544,2.15-32.549,8.071l-208.359,119.791c-44.996,28.257-94.149,67.13-120.78,113.148
							C717.012,1303.679,690,1359.999,690,1417.04v365.691l67.83,36.021c10.1,5.808,23.914,8.668,35.134,8.668
							c11.331,0,26.276-2.86,36.376-8.668l90.659,51.731v-484.05c0-23.273,14.055-45.41,34.255-57.041L1311.852,1121.442z"/>
					</defs>
					<clipPath id="SVGID_4_">
						<use xlink:href="#SVGID_3_"  overflow="visible"/>
					</clipPath>
					<g id="g32" clip-path="url(#SVGID_4_)">
						
							<linearGradient id="path46_1_" gradientUnits="userSpaceOnUse" x1="9817.168" y1="-16318.1699" x2="9818.168" y2="-16318.1699" gradientTransform="matrix(11.0551 0 0 -11.0551 -107839.5 -178956.8125)">
							<stop  offset="0" style="stop-color:#F9AC1D"/>
							<stop  offset="0.9952" style="stop-color:#F9AD20"/>
							<stop  offset="1" style="stop-color:#F9AD20"/>
						</linearGradient>
						<path id="path46" fill="url(#path46_1_)" d="M1311.852,1121.442l-172.244-99.58c-10.1-5.823-21.218-8.683-32.439-8.683
							c-11.331,0-22.544,2.15-32.549,8.071l-208.359,119.791c-44.996,28.257-94.149,67.13-120.78,113.148
							C717.012,1303.679,690,1359.999,690,1417.04v365.691l67.83,36.021c10.1,5.808,23.914,8.668,35.134,8.668
							c11.331,0,26.276-2.86,36.376-8.668l90.659,51.731v-484.05c0-23.273,14.055-45.41,34.255-57.041L1311.852,1121.442"/>
					</g>
				</g>
			</g>
		</g>
		<g id="g48">
			<g>
				<g>
					<defs>
						<path id="SVGID_5_" d="M1202.575,389.964L881.671,207.122c-10.913-6.313-22.852-10.049-34.893-10.049
							c-12.246,0-23.881,1.304-34.797,7.72l-322.02,181.099L169.786,575.355c-21.735,12.451-39.785,39.492-39.785,64.585v614.561
							c0,100.298,58.253,193.151,145.085,243.351l137.384,77.648l77.721,44.18l0.498,0.103l198.959,114.683l122.49,70.715
							c10.917,6.226,23.035,9.28,35.072,9.28c12.239,0,24.221-3.054,35.134-9.28l93.684-54.518l228.479-132.469h0.813
							l302.175-181.589c21.636-12.554,22.5-35.383,22.5-60.377v-614.55c0-100.408-40.869-193.25-127.896-243.347L1219.303,401.61
							L1202.575,389.964z M1718.31,1512.339c-28.572,49.482-68.796,90.601-118.293,119.172l-283.77,164.169l-6.841,4.091
							l-300.037,173.148c-49.38,28.572-105.63,43.671-162.766,43.671c-57.041,0-113.328-15.099-162.814-43.671l-286.542-165.399
							l-0.326-0.198l-12.048-6.94l-194.583-112.441c-79.076-45.612-155.09-111.628-200.702-190.712
							C-56.125,1418.16-90,1327.959-90,1236.641V666.688c0-57.041,24.895-113.364,53.364-162.861
							c28.568-49.482,74.432-89.751,123.919-118.228l295.851-167.402h0.304L683.621,44.085
							C733.11,15.521,789.434,0.008,846.574,0.008c57.034,0,113.452,14.883,162.847,43.462l298.96,172.471l194.78,112.324
							c79.175,45.601,143.218,111.606,188.928,190.679c45.608,79.175,67.91,169.263,67.91,260.596v569.949
							C1759.999,1406.529,1746.881,1462.849,1718.31,1512.339L1718.31,1512.339z"/>
					</defs>
					<clipPath id="SVGID_6_">
						<use xlink:href="#SVGID_5_"  overflow="visible"/>
					</clipPath>
					<g id="g50" clip-path="url(#SVGID_6_)">
						
							<linearGradient id="path66_1_" gradientUnits="userSpaceOnUse" x1="9734.3311" y1="-16642.8457" x2="9735.3311" y2="-16642.8457" gradientTransform="matrix(18.2779 27.4169 27.4169 -18.2779 278699.1875 -570843.4375)">
							<stop  offset="0" style="stop-color:#CAA118"/>
							<stop  offset="0.9952" style="stop-color:#F9AD20"/>
							<stop  offset="1" style="stop-color:#F9AD20"/>
							<stop  offset="1" style="stop-color:#F9AD20"/>
						</linearGradient>
						<path id="path66" fill="url(#path66_1_)" d="M1202.575,389.964L881.671,207.122c-10.913-6.313-22.852-10.049-34.893-10.049
							c-12.246,0-23.881,1.304-34.797,7.72l-322.02,181.099L169.786,575.355c-21.735,12.451-39.785,39.492-39.785,64.585v614.561
							c0,100.298,58.253,193.151,145.085,243.351l137.384,77.648l77.721,44.18l0.498,0.103l198.959,114.683l122.49,70.715
							c10.917,6.226,23.035,9.28,35.072,9.28c12.239,0,24.221-3.054,35.134-9.28l93.684-54.518l228.479-132.469h0.813
							l302.175-181.589c21.636-12.554,22.5-35.383,22.5-60.377v-614.55c0-100.408-40.869-193.25-127.896-243.347L1219.303,401.61
							L1202.575,389.964z M1718.31,1512.339c-28.572,49.482-68.796,90.601-118.293,119.172l-283.77,164.169l-6.841,4.091
							l-300.037,173.148c-49.38,28.572-105.63,43.671-162.766,43.671c-57.041,0-113.328-15.099-162.814-43.671l-286.542-165.399
							l-0.326-0.198l-12.048-6.94l-194.583-112.441c-79.076-45.612-155.09-111.628-200.702-190.712
							C-56.125,1418.16-90,1327.959-90,1236.641V666.688c0-57.041,24.895-113.364,53.364-162.861
							c28.568-49.482,74.432-89.751,123.919-118.228l295.851-167.402h0.304L683.621,44.085
							C733.11,15.521,789.434,0.008,846.574,0.008c57.034,0,113.452,14.883,162.847,43.462l298.96,172.471l194.78,112.324
							c79.175,45.601,143.218,111.606,188.928,190.679c45.608,79.175,67.91,169.263,67.91,260.596v569.949
							C1759.999,1406.529,1746.881,1462.849,1718.31,1512.339"/>
					</g>
				</g>
			</g>
		</g>
	</g>
</g>
</svg>
